# xmcd
#
# Track frame offsets: 
#        150
#        14495
#        27942
#        40455
#        54285
#        67182
#        81944
#        95595
#        110556
#        124024
#        136251
#        151397
#        165046
#        179103
#        192475
#        204307
#        219517
#        234759
#        251355
#        261762
#        277037
#        289395
#
# Disc length: 4061 seconds
#
# Revision: 0
# Processed by: cddbd v1.5.2PL0 Copyright (c) Steve Scherf et al.
# Submitted via: ExactAudioCopy v0.99pb3
#
DISCID=410fdb16
DTITLE=Jackson Mahalia - Come To Jesus CD1 - Amazing Grace
DYEAR=2006
DGENRE=Gospel
TTITLE0=God´s gonna separate the wheat from the tares
TTITLE1=Oh my Lord
TTITLE2=Keep me everyday
TTITLE3=God shall wipe all the tears away
TTITLE4=I want to rest
TTITLE5=He knows my heart
TTITLE6=I´m goin´ to wait until my change comes
TTITLE7=I´m goin´ to tell God
TTITLE8=What could i do
TTITLE9=Move on up a little higher pt.1
TTITLE10=Move on up a little higher pt.2
TTITLE11=Even me
TTITLE12=I have a friend
TTITLE13=Deep a little deeper
TTITLE14=Tired
TTITLE15=If you see my saviour
TTITLE16=In my home over there
TTITLE17=There´s not a friend like Jesus
TTITLE18=Amazing graze
TTITLE19=Since the fire started burning in my soul
TTITLE20=Move on up a little higher pt.1 (alt.tke)
TTITLE21=Move on up a little higher pt.2 (alt.tke)
EXTD=
EXTT0=
EXTT1=
EXTT2=
EXTT3=
EXTT4=
EXTT5=
EXTT6=
EXTT7=
EXTT8=
EXTT9=
EXTT10=
EXTT11=
EXTT12=
EXTT13=
EXTT14=
EXTT15=
EXTT16=
EXTT17=
EXTT18=
EXTT19=
EXTT20=
EXTT21=
PLAYORDER=
